<?xml version="1.0" ?><!DOCTYPE svg  PUBLIC '-//W3C//DTD SVG 1.1//EN'  'http://www.w3.org/Graphics/SVG/1.1/DTD/svg11.dtd'><svg enable-background="new 0 0 512 512" height="512px" id="Layer_1" version="1.1" viewBox="0 0 512 512" width="512px" xml:space="preserve" xmlns="http://www.w3.org/2000/svg" xmlns:xlink="http://www.w3.org/1999/xlink"><g><path d="M437.017,74.982C390.66,28.641,326.733,0,256.002,0c-70.736,0-134.663,28.641-181.01,74.982   C28.631,121.339,0,185.407,0,255.997c0,70.736,28.631,134.663,74.992,181.02C121.339,483.363,185.266,512,256.002,512   c70.731,0,134.658-28.637,181.015-74.983C483.368,390.66,512,326.733,512,255.997C512,185.407,483.368,121.339,437.017,74.982z"/><g><path d="M255.997,136.879c-65.526,0-119.163,53.622-119.163,119.164c0,65.536,53.637,119.173,119.163,119.173    c65.552,0,119.163-53.637,119.163-119.173C375.16,190.501,322.145,136.879,255.997,136.879z M310.815,309.073    c-2.373,3.575-6.548,4.776-10.127,2.394c-28.011-17.292-63.169-20.871-104.866-11.34c-4.165,1.202-7.745-1.776-8.931-5.356    c-1.192-4.175,1.782-7.739,5.366-8.931c45.262-10.138,84.591-5.968,115.574,13.116    C312.017,300.733,312.607,305.509,310.815,309.073z M325.118,276.298c-2.974,4.18-8.33,5.957-12.511,2.974    c-32.17-19.654-81.046-25.622-118.563-13.682c-4.771,1.187-10.122-1.207-11.324-5.973c-1.181-4.761,1.202-10.123,5.953-11.319    c43.494-13.106,97.115-6.553,134.052,16.085C326.325,266.17,328.102,272.138,325.118,276.298z M341.804,239.952    c-2.993,4.176-10.138,5.973-15.479,2.984c-38.158-22.634-101.893-25.026-138.248-13.697c-5.947,1.787-11.92-1.792-13.691-7.159    c-1.813-5.952,1.771-11.915,7.154-13.702c42.297-12.516,111.999-10.127,156.099,16.085    C343.001,227.447,344.783,234.601,341.804,239.952z" fill="#FFFFFF"/></g></g></svg>